<svg version="1.0" xmlns="http://www.w3.org/2000/svg" viewBox="178.16 79.13 827.85 1036.9"><path d="M561 80.1c-109.6 8.8-192.4 62.6-237.5 154.4-8 16.2-15.5 34.7-15.5 38 0 .8-.4 1.5-.8 1.5s-.8.8-.9 1.7c-.1 1.9-.6 3.8-1.6 6.3-1.7 4.7-7.8 28.7-9.1 36-.3 1.9-.8 4.6-1.1 5.9-.2 1.4-.7 4.7-1 7.4-.3 2.8-.8 5.3-1 5.6-.8 1.3-2.4 18.9-2.8 31.3-.1 2.7-.5 4.8-1 4.8-.4 0-.3.9.3 2 .8 1.4.8 2 0 2-.7 0-.8.6-.1 1.9.6 1 .8 2.1.5 2.4-.3.3-.5 39.2-.4 86.5l.1 86-2.6 2c-1.4 1.1-6.9 3-12.3 4.3-15.9 3.6-26.6 7.4-36.4 12.8-10.9 6-14.9 9.1-24 18.3-20.6 20.8-33.4 56-35.3 96.8-.5 9.9-.4 302.2.1 312.5.8 17.5 2.8 31.9 4.6 34.3.7.8.7 1.2-.1 1.2-.7 0-.9.5-.4 1.3.4.6.8 1.6.9 2.2.1.5 1.1 3.4 2.3 6.2 1.1 2.9 1.7 5.3 1.3 5.3-.4 0-.2.4.3.8 1 .7 3.7 6.1 3.7 7.2 0 .3.6 1.2 1.4 2.1.8.9 1.2 1.8.9 2.1-.3.3.6 1.7 2 3.2 1.3 1.4 2.5 2.9 2.5 3.1 0 1.4 8.4 11.7 12.2 15 2.4 2.1 3.4 3.2 2.3 2.4-1.8-1.3-1.9-1.3-.6.3.7 1 1.7 1.8 2.2 1.8.5 0 1.7.8 2.7 1.7 3.9 3.7 6.7 5.7 12.1 8.6 17.5 9.4 26.7 12.1 52.1 15.3 11.1 1.3 46.1 1.5 312.1 1.4 310.6 0 312.3 0 331.4-3.9 22.1-4.5 39.7-13.4 53.1-27 16.1-16.2 23.8-34.2 26.9-62.6 1.2-10.7 1.5-40.7 1.5-169.6 0-86.2-.2-157.3-.4-158-.3-.8-.7-6.3-1-12.2-.4-6-.8-11.2-1-11.6-.3-.4-.7-2.7-1-5.1-1.7-14.3-7.6-34.2-13.7-46.3-3-5.7-10.7-17.6-13.8-21.1-6.2-6.9-15.9-16-17.4-16.4-1.3-.3-3.7-3-3.8-4.4 0-.7-.4-.4-.8.7-.8 1.9-.8 1.9-1.5-.3-.5-1.4-1.3-2.1-2.1-1.8-.8.3-1.9-.2-2.5-1-.7-.8-1.9-1.4-2.6-1.4-.8 0-1.4-.5-1.4-1 0-.6-.7-1-1.5-1s-1.5-.5-1.5-1c0-.6-.9-1-2-1s-2-.5-2-1.1c0-.5-.4-.7-1-.4-.5.3-1 .1-1-.5s-.4-.8-1-.5c-.5.3-1 .2-1-.4 0-.5-.8-.8-1.7-.6-1 .1-3-.4-4.5-1.1-1.5-.8-3.1-1.3-3.5-1.3-.4.1-1.6-.1-2.5-.4-4.6-1.8-5.4-2-6.9-2.3-.9-.2-2.7-.8-4-1.3-1.3-.5-2.7-.8-3-.7-.4 0-1.7-.8-3-1.9-1.4-1.3-2-1.4-1.5-.5.4.8-.4.2-1.8-1.3l-2.6-2.8v-84.7c-.1-46.6-.3-88.3-.5-92.7-.7-11.7-1.4-20.6-1.9-24-.3-2.4-2.6-16.9-4-25.5-2.1-12.5-3-17-3.6-17-.4 0-.6-1-.5-2.3.1-1.2-.1-2.7-.5-3.2-.5-.6-1.1-2.4-1.3-4-.9-4.6-1.4-6.8-2.5-9.6-.6-1.5-.8-2.9-.6-3.2.3-.3-.2-2.2-1-4.2-.9-2.1-1.6-4.7-1.6-5.9 0-1.6-.2-1.8-.9-.7-.7 1-1.1.1-1.6-3.2-.4-2.6-1.2-4.7-1.7-4.7-.6 0-.8-.9-.5-2 .3-1.1.1-2-.4-2s-.9-.7-.9-1.5-.4-1.5-1-1.5c-.5 0-.6-.7-.3-1.7.5-1.1.3-1.4-.6-.8-1 .6-1.1.2-.6-1.5.5-1.7.4-2.1-.5-1.5-.8.5-1.1.4-.6-.3.7-1.1-2.8-9.3-9.6-22.7-2.2-4.4-5.5-10.7-7.1-14-1.7-3.3-3.4-6.2-3.8-6.5-.3-.3-1.6-2.5-2.9-4.9-1.2-2.4-2.6-4.9-3.1-5.5-3-3.6-8.4-11.3-10.5-14.9-1.3-2.3-2.4-3.8-2.4-3.4 0 .4-.6.2-1.4-.5-.8-.7-1.2-1.6-.9-2 .2-.4-.7-1.9-2.1-3.3-1.5-1.4-2.6-3.1-2.6-3.7 0-.6-.3-.8-.7-.5-.3.4-1.3-.2-2-1.3-.8-1.1-1.9-1.8-2.4-1.5-.5.4-.9-.2-.9-1.2 0-1.1-2-3.9-4.5-6.3-2.4-2.4-4.2-4.7-3.9-5.2.3-.4-.4-.8-1.5-.8s-2.2-.9-2.6-2c-.3-1.1-1.3-2-2.1-2s-1.4-.7-1.4-1.5-.7-1.5-1.6-1.5c-.8 0-1.2-.5-.9-1 .3-.6-.1-1-.9-1-.9 0-1.6-.5-1.6-1.1 0-.5-.3-.8-.7-.6-.5.3-1.4-.1-2.1-.9-.7-.8-.9-1.4-.5-1.4.4-.1-.4-.8-1.9-1.6-1.6-.8-2.8-1.9-2.8-2.4 0-.6-.7-1-1.5-1s-1.5-.5-1.5-1c0-.6-.5-1-1-1-.6 0-2.1-1.1-3.4-2.5-1.3-1.4-2.6-2.5-3-2.5-.7 0-6.7-4.1-7.6-5.1-.3-.3-1.9-1.3-3.7-2.2-1.7-.9-3.7-2.2-4.5-2.9-1.8-1.7-5.9-4.2-14.3-8.5-3.8-1.9-7.3-4-7.6-4.5-.3-.5-.9-.9-1.2-.9-.4 0-2.6-.8-4.9-1.8-37.4-15.8-66.5-22.9-107.2-26.1-15-1.2-50.4-1.1-65.6.1zm47.5 121.4c10.3 1 14 1.5 24 3.1 9 1.5 28.3 6.7 31.4 8.5 1.7.9 7.4 3.1 7.9 3 1-.4 27.3 14.8 29.2 17 .3.3 2.3 1.8 4.4 3.5 2.2 1.6 4.9 3.8 6 4.9 1.2 1.1 3.5 3.1 5.1 4.3 1.7 1.3 2.3 2.1 1.5 1.7-.8-.4-.1.6 1.6 2.2 2.7 2.4 9.8 10.7 15.7 18.4 1 1.3 2.7 4 3.8 5.9 1.1 1.9 2.8 4.8 3.9 6.5 1.9 3 7.3 12.6 7.5 13.5.1.3 1 2.3 2 4.5s1.8 4.3 1.7 4.7c-.1.5.2.8.6.8.5 0 .9.6 1 1.2.2 2.9 2.9 8.8 3.7 8.1.4-.5.5-.3.1.4s.7 5 2.3 9.7c1.6 4.6 2.7 8.7 2.4 9-.3.3 0 1.2.7 2.1.7.9 1 1.8.7 2.2-.4.3-.2 1.2.4 2 .9 1 .8 1.3-.2 1.3-.9.1-.8.5.5 1.5 1.1.8 1.5 1.5.8 1.5-.8 0-.9.7-.1 2.7.6 1.6 1.2 3.7 1.4 4.8.8 4.9 2.7 20.3 2.9 23 0 1.6.5 3.3 1.1 3.7.7.5.6.8 0 .8s-1.1.9-1.1 2 .4 2 .9 2 .4.6-.2 1.4c-.9 1.1-.9 1.5.1 2s1 .7.1 1.2c-1.9.8-1.6 2.4.5 2.4 1 0 1.3.3.6.8-1.6 1-1.8 22.2-.3 22.2.8 0 .9.4 0 1.3-.8 1-1.2 21.5-1.3 70.7l-.3 69.4-3.4 2c-3.4 2-5.6 2-171.7 2.4-121.6.3-168.3.1-168.8-.7-.4-.6-2.2-1.1-4-1.1-6.9 0-6.5 5.9-6.6-90.5-.1-47.9-.1-87.2 0-87.5.1-.3.3-3.2.5-6.5.4-6.5 1-11.7 2.6-21 .6-3.3 1.2-7.1 1.3-8.5.2-1.4.6-3.2 1-4.1.4-.9.8-2.7 1-4.1.1-1.3.5-2.8.8-3.3.3-.6.9-2.8 1.3-5 .8-4.2 4.7-15.9 7.1-21.2.8-1.7 1.4-3.4 1.4-3.9 0-3.3 18.8-35.6 24.7-42.4 3.6-4.2 19.7-20 23.9-23.5 11-9.3 39.8-24 50.7-25.9.7-.1 2.8-.7 4.7-1.4 5.8-1.9 27.3-5.2 38.2-5.8 5.7-.4 10.4-.7 10.5-.8.4-.3 15.6.3 21.8.9z"/></svg>